<?xml version="1.0" encoding="UTF-8" standalone="no"?>
<svg
   viewBox="0 0 512 512"
   version="1.1"
   id="svg4"
   sodipodi:docname="earth.svg"
   inkscape:version="1.2.1 (9c6d41e410, 2022-07-14)"
   xmlns:inkscape="http://www.inkscape.org/namespaces/inkscape"
   xmlns:sodipodi="http://sodipodi.sourceforge.net/DTD/sodipodi-0.dtd"
   xmlns="http://www.w3.org/2000/svg"
   xmlns:svg="http://www.w3.org/2000/svg">
  <defs
     id="defs8" />
  <sodipodi:namedview
     id="namedview6"
     pagecolor="#ffffff"
     bordercolor="#000000"
     borderopacity="0.25"
     inkscape:showpageshadow="2"
     inkscape:pageopacity="0.0"
     inkscape:pagecheckerboard="0"
     inkscape:deskcolor="#d1d1d1"
     showgrid="false"
     inkscape:zoom="1.6132812"
     inkscape:cx="256.30993"
     inkscape:cy="256.30993"
     inkscape:window-width="1920"
     inkscape:window-height="1009"
     inkscape:window-x="-8"
     inkscape:window-y="-8"
     inkscape:window-maximized="1"
     inkscape:current-layer="svg4" />
  <!--! Font Awesome Pro 6.2.0 by @fontawesome - https://fontawesome.com License - https://fontawesome.com/license (Commercial License) Copyright 2022 Fonticons, Inc. -->
  <path
     d="M57.7 193l9.4 16.4c8.3 14.5 21.9 25.2 38 29.8L163 255.7c17.2 4.9 29 20.6 29 38.5v39.9c0 11 6.2 21 16 25.9s16 14.9 16 25.9v39c0 15.6 14.9 26.9 29.9 22.6c16.1-4.6 28.6-17.5 32.7-33.8l2.8-11.2c4.2-16.9 15.2-31.4 30.3-40l8.1-4.6c15-8.5 24.2-24.5 24.2-41.7v-8.3c0-12.7-5.1-24.9-14.1-33.9l-3.9-3.9c-9-9-21.2-14.1-33.9-14.1H257c-11.1 0-22.1-2.9-31.8-8.4l-34.5-19.7c-4.3-2.5-7.6-6.5-9.2-11.2c-3.2-9.6 1.1-20 10.2-24.5l5.9-3c6.6-3.3 14.3-3.9 21.3-1.5l23.2 7.7c8.2 2.7 17.2-.4 21.9-7.5c4.7-7 4.2-16.3-1.2-22.8l-13.6-16.3c-10-12-9.9-29.5 .3-41.3l15.7-18.3c8.8-10.3 10.2-25 3.5-36.7l-2.4-4.2c-3.5-.2-6.9-.3-10.4-.3C163.1 48 84.4 108.9 57.7 193zM464 256c0-36.8-9.6-71.4-26.4-101.5L412 164.8c-15.7 6.3-23.8 23.8-18.5 39.8l16.9 50.7c3.5 10.4 12 18.3 22.6 20.9l29.1 7.3c1.2-9 1.8-18.2 1.8-27.5zm48 0c0 141.4-114.6 256-256 256S0 397.4 0 256S114.6 0 256 0S512 114.6 512 256z"
     id="path2" />
  <path
     style="fill:#53a748;stroke-width:0.619855"
     d="M 244.22276,511.28409 C 209.88361,509.99888 174.40284,500.86817 142.87651,485.2034 92.556354,460.20036 52.442753,420.23506 27.299109,370.05327 13.834339,343.18022 5.7984657,316.08212 1.7486466,283.89346 c -1.11517776,-8.86362 -1.11517776,-46.9233 0,-55.78692 C 4.8861708,203.16896 10.24447,181.96301 18.742386,160.8523 49.159554,85.289289 113.89021,28.515368 192.66636,8.307182 227.98615,-0.75328782 266.32009,-2.0102792 302.90749,4.6923133 373.97186,17.710877 437.35868,61.747498 475.02336,124.26609 c 18.48546,30.68351 29.58853,62.79041 34.8379,100.74117 1.3362,9.66012 1.90095,40.32679 0.95316,51.75787 -7.50504,90.5173 -61.95148,169.76232 -143.8949,209.43436 -38.61832,18.69665 -78.03913,26.75599 -122.69676,25.0846 z m 13.76433,-64.83963 c 6.47955,-2.51602 12.61756,-6.76359 17.81297,-12.3268 6.10588,-6.53812 9.14424,-12.91858 12.77043,-26.81758 4.04756,-15.51407 8.20222,-23.7379 16.44264,-32.54693 5.1871,-5.54503 9.30361,-8.64753 18.77459,-14.14989 12.93182,-7.51301 18.45808,-12.98075 23.33951,-23.09236 4.10463,-8.50251 4.95025,-12.84385 4.95025,-25.41405 0,-12.09914 -0.83776,-16.73293 -4.42026,-24.44893 -2.94712,-6.34754 -5.6328,-9.98797 -12.06401,-16.35273 -5.57255,-5.51499 -11.19856,-9.46879 -16.82937,-11.82721 -7.77412,-3.25613 -9.74509,-3.44852 -35.49023,-3.46412 -26.0449,-0.0158 -34.89242,-0.54067 -42.46005,-2.51899 -6.98597,-1.82627 -12.70334,-4.65252 -33.7697,-16.69329 -12.85398,-7.34686 -19.15166,-11.30602 -20.68658,-13.005 -3.54425,-3.92306 -4.91134,-7.17905 -5.21312,-12.41612 -0.53989,-9.36886 3.3566,-15.06947 13.89925,-20.33484 11.88298,-5.93476 14.54717,-5.87367 35.18745,0.80687 14.02957,4.54089 15.06835,4.78485 19.2155,4.51279 10.39301,-0.6818 17.91573,-8.69205 17.91573,-19.07683 0,-6.35102 -1.34688,-8.85359 -11.05631,-20.54314 -11.98457,-14.42869 -13.91018,-18.44826 -13.91436,-29.04524 -0.002,-6.02644 1.65549,-11.66948 4.79506,-16.32144 1.03293,-1.53051 6.12294,-7.73289 11.31112,-13.783054 10.81789,-12.615215 13.16599,-16.678388 14.35575,-24.841354 0.96871,-6.646324 -0.28276,-13.440484 -3.69438,-20.056571 l -2.39724,-4.64891 -8.6351,-0.194726 C 217.85666,46.935911 175.93301,59.215971 141.45348,82.019307 103.90529,106.85214 76.188755,141.80795 60.369966,184.28099 c -1.497913,4.02186 -2.723477,7.79436 -2.723477,8.38335 0,1.43806 9.907151,18.59246 13.726193,23.76712 3.634723,4.92492 9.618044,10.64424 14.858749,14.20314 7.980691,5.41958 13.712543,7.48518 47.037339,16.95095 20.5769,5.84479 33.46464,9.82248 36.2615,11.19182 7.70896,3.77429 14.08435,10.14782 17.9126,17.90734 3.84583,7.79514 4.07286,9.78367 4.08308,35.76319 0.006,14.00595 0.27688,24.75142 0.68095,26.96368 1.54623,8.46544 7.29518,16.31659 15.1345,20.6687 5.42953,3.01426 8.56107,5.76828 11.40978,10.03427 4.55296,6.81811 4.58913,7.07656 4.97884,35.58037 l 0.34746,25.41404 1.64907,3.51777 c 5.75029,12.26644 18.79687,17.04569 32.26054,11.81773 z M 462.62958,281.56901 c 1.04534,-6.39172 1.76508,-22.63377 1.43518,-32.38741 -0.94553,-27.95594 -6.95682,-53.92346 -18.39283,-79.45324 -3.27701,-7.31561 -7.59548,-15.38313 -8.23488,-15.38392 -0.99691,-0.001 -25.66855,10.11916 -29.18107,11.97019 -5.14811,2.71295 -10.2975,8.01316 -12.96455,13.34427 -2.83232,5.66149 -3.75053,10.18367 -3.41215,16.80488 0.24589,4.81157 1.1142,7.83588 9.44094,32.88247 5.04357,15.17094 10.04371,29.2571 11.1114,31.30257 2.50559,4.80016 8.3958,10.65696 13.09129,13.01704 2.24897,1.13039 10.02446,3.47969 19.82931,5.99126 8.87129,2.27244 16.30232,4.15525 16.51341,4.18402 0.21108,0.0288 0.55486,-0.99368 0.76395,-2.27213 z"
     id="path860" />
</svg>
