<?xml version="1.0" encoding="UTF-8" standalone="no"?>
<svg
   viewBox="0 0 640 512"
   version="1.1"
   id="svg1232"
   sodipodi:docname="robot.svg"
   inkscape:version="1.2.1 (9c6d41e410, 2022-07-14)"
   xmlns:inkscape="http://www.inkscape.org/namespaces/inkscape"
   xmlns:sodipodi="http://sodipodi.sourceforge.net/DTD/sodipodi-0.dtd"
   xmlns="http://www.w3.org/2000/svg"
   xmlns:svg="http://www.w3.org/2000/svg">
  <defs
     id="defs1236" />
  <sodipodi:namedview
     id="namedview1234"
     pagecolor="#ffffff"
     bordercolor="#000000"
     borderopacity="0.25"
     inkscape:showpageshadow="2"
     inkscape:pageopacity="0.0"
     inkscape:pagecheckerboard="0"
     inkscape:deskcolor="#d1d1d1"
     showgrid="false"
     inkscape:zoom="1.6132812"
     inkscape:cx="320.15496"
     inkscape:cy="256.30993"
     inkscape:window-width="1920"
     inkscape:window-height="1009"
     inkscape:window-x="-8"
     inkscape:window-y="-8"
     inkscape:window-maximized="1"
     inkscape:current-layer="svg1232" />
  <!--! Font Awesome Pro 6.2.0 by @fontawesome - https://fontawesome.com License - https://fontawesome.com/license (Commercial License) Copyright 2022 Fonticons, Inc. -->
  <path
     d="M320 0c17.7 0 32 14.3 32 32V96H480c35.3 0 64 28.7 64 64V448c0 35.3-28.7 64-64 64H160c-35.3 0-64-28.7-64-64V160c0-35.3 28.7-64 64-64H288V32c0-17.7 14.3-32 32-32zM208 384c-8.8 0-16 7.2-16 16s7.2 16 16 16h32c8.8 0 16-7.2 16-16s-7.2-16-16-16H208zm96 0c-8.8 0-16 7.2-16 16s7.2 16 16 16h32c8.8 0 16-7.2 16-16s-7.2-16-16-16H304zm96 0c-8.8 0-16 7.2-16 16s7.2 16 16 16h32c8.8 0 16-7.2 16-16s-7.2-16-16-16H400zM264 256c0-22.1-17.9-40-40-40s-40 17.9-40 40s17.9 40 40 40s40-17.9 40-40zm152 40c22.1 0 40-17.9 40-40s-17.9-40-40-40s-40 17.9-40 40s17.9 40 40 40zM48 224H64V416H48c-26.5 0-48-21.5-48-48V272c0-26.5 21.5-48 48-48zm544 0c26.5 0 48 21.5 48 48v96c0 26.5-21.5 48-48 48H576V224h16z"
     id="path1230" />
  <path
     style="fill:#53a748;stroke-width:0.619855"
     d="m 154.0339,511.32521 c -14.93196,-1.34983 -28.3453,-7.86089 -39.36078,-19.10638 -10.57167,-10.79241 -16.245231,-22.77437 -17.996732,-38.00721 -0.830652,-7.2242 -0.788852,-293.45428 0.04393,-300.79758 3.413342,-30.0982 26.673532,-53.24351 57.003652,-56.722102 3.09154,-0.354576 31.97182,-0.606386 69.88862,-0.609373 l 64.61986,-0.0051 V 63.029097 c 0,-20.978268 0.24404,-34.368578 0.66822,-36.663115 2.22359,-12.028531 11.47144,-21.8856726 23.59582,-25.1504298 4.06241,-1.09389071 12.14468,-0.80071796 16.69108,0.6054442 7.61427,2.3550307 14.86573,8.3010226 18.68549,15.3215996 3.51565,6.461597 3.58457,7.320377 3.58457,44.66318 v 34.271706 h 64.94604 c 41.00879,0 66.88197,0.236685 70.19855,0.642169 24.83078,3.035813 44.91378,18.860049 53.28016,41.981659 3.98009,10.99951 3.76365,0.8637 3.58383,167.83036 l -0.16355,151.8509 -1.35749,4.75765 c -5.48348,19.21816 -17.10154,33.49556 -33.97423,41.75086 -8.09823,3.96222 -14.3116,5.67531 -23.55448,6.49422 -8.32589,0.73766 -322.18926,0.68057 -330.38256,-0.0601 z m 92.78384,-96.52366 c 3.29513,-1.6231 7.02461,-5.45246 8.31271,-8.53533 1.48444,-3.55276 1.12696,-10.03895 -0.76224,-13.83007 -1.88188,-3.77644 -5.9435,-7.07709 -9.95504,-8.08991 -1.53596,-0.38779 -10.04725,-0.65617 -20.80968,-0.65617 -20.31563,0 -21.8987,0.24315 -26.34119,4.04575 -3.61667,3.09574 -5.32557,7.06168 -5.33464,12.3804 -0.008,4.89034 1.28288,8.08854 4.60813,11.41379 4.60802,4.60802 6.69418,4.95731 28.7814,4.81894 18.05228,-0.1131 18.68053,-0.15831 21.50055,-1.5474 z m 95.38715,0.41376 c 6.1222,-2.75697 9.86567,-8.61138 9.85292,-15.40901 -0.0122,-6.47866 -2.95856,-11.26578 -8.88488,-14.43557 -2.46321,-1.31748 -3.31715,-1.37803 -21.98415,-1.5586 -22.70343,-0.2196 -23.80685,-0.0327 -28.69963,4.86002 -8.77865,8.77865 -4.74455,23.66719 7.31743,27.00624 4.64708,1.28643 39.35509,0.90734 42.39831,-0.46308 z m 96.16428,-0.0946 c 7.74365,-3.55024 11.54117,-12.101 9.05683,-20.39299 -0.92291,-3.08043 -4.85693,-7.58174 -8.17946,-9.35897 C 436.75336,384.03515 436.15446,384 415.92252,384 c -20.10723,0 -20.84369,0.0425 -23.24455,1.34036 -5.16434,2.7918 -8.30454,7.51032 -8.82611,13.26224 -0.55012,6.06684 2.22323,11.90897 7.07759,14.90913 4.47154,2.76357 6.74338,3.00576 26.5427,2.82957 15.96037,-0.14202 18.92179,-0.31499 20.89702,-1.22058 z m -201.68719,-120.877 c 10.22284,-3.56294 18.55086,-10.7151 22.95814,-19.71662 3.35015,-6.84242 4.41799,-11.32047 4.41799,-18.5271 0,-7.21909 -1.06786,-11.6849 -4.44156,-18.57466 -6.37246,-13.01384 -20.59265,-21.69437 -35.53907,-21.69437 -18.33115,0 -34.58292,12.60136 -39.14366,30.35135 -0.61169,2.38066 -1.03523,6.43827 -1.03523,9.91768 0,11.43682 3.62957,20.25594 11.62851,28.25487 5.65683,5.65684 12.44154,9.51098 19.56249,11.11273 6.12496,1.37771 15.87014,0.87048 21.59239,-1.12388 z m 191.99616,-0.0584 c 8.75366,-2.79805 17.11714,-9.41972 21.84516,-17.2956 6.66147,-11.09662 7.49561,-25.92255 2.11937,-37.66977 -9.7927,-21.39732 -35.93377,-29.75368 -56.86543,-18.17783 -4.91552,2.71842 -12.78427,10.95922 -15.36301,16.08936 -3.54876,7.05995 -4.427,10.80313 -4.427,18.86855 0,11.88806 3.2781,19.79959 11.70284,28.24424 6.37648,6.39155 11.41123,9.22333 19.86441,11.17265 5.59736,1.29076 14.93587,0.74629 21.12366,-1.2316 z"
     id="path1718" />
  <path
     style="fill:#53a748;stroke-width:0.619855"
     d="M 41.554645,415.19765 C 31.293028,413.73234 22.200088,409.09577 14.51342,401.4091 5.8429328,392.73861 1.7102273,383.76785 0.55311093,371.10581 0.15935275,366.79702 0.00515552,345.4763 0.14651537,314.8862 0.37034987,266.44867 0.39742488,265.52313 1.733132,260.64891 c 3.8599182,-14.08548 13.265345,-25.60748 25.782649,-31.58469 7.560533,-3.61028 10.58963,-4.17705 24.087125,-4.50695 l 12.24213,-0.29921 v 95.83223 95.83223 l -9.142857,-0.0765 c -5.028571,-0.0421 -10.944961,-0.33384 -13.147534,-0.64836 z"
     id="path1720" />
  <path
     style="fill:#53a748;stroke-width:0.619855"
     d="m 576.46489,320.17818 v -95.92012 l 12.24213,0.27608 c 13.8362,0.31203 16.80803,0.95857 25.87894,5.63011 3.7769,1.94512 6.28855,3.88795 10.53768,8.1512 7.8771,7.90327 11.56565,14.62507 13.61592,24.81288 0.8807,4.37625 0.97696,11.33093 0.81926,59.19613 l -0.17867,54.23728 -2.04337,5.85502 c -4.65367,13.33448 -13.05968,22.84964 -25.28908,28.6259 -7.43585,3.51215 -11.41946,4.28255 -24.27046,4.69371 l -11.31235,0.36194 z"
     id="path1722" />
</svg>
